<svg xmlns="http://www.w3.org/2000/svg" viewBox="0 0 100 140" width="368" height="512" style="background:#0E1014">
<path d="M30.23 53.66 L29.59 53.75 L29.33 53.64 L28.98 53.82 L28.45 53.70 L28.34 52.59 L28.02 51.49 L27.65 51.24 L27.44 50.37 L27.04 49.85 L26.56 49.38 L25.98 49.05 L25.96 48.81 L25.20 47.66 L24.60 46.95 L24.08 46.99 L23.91 46.55 L23.56 46.08 L23.17 45.14 L23.38 44.21 L23.97 43.46 L24.31 42.65 L24.63 42.32 L24.61 41.90 L23.97 41.23 L23.38 40.91 L23.19 40.25 L23.26 39.68 L23.58 39.41 L23.86 38.91 L23.66 38.62 L24.00 37.20 L23.67 36.92 L23.72 36.33 L23.22 36.08 L23.55 35.79 L23.55 35.37 L23.72 35.15 L23.75 34.50 L23.62 33.89 L23.87 33.60 L24.14 32.41 L24.44 31.95 L24.25 31.34 L24.56 30.92 L24.83 30.89 L24.92 30.33 L25.38 29.83 L25.47 29.41 L25.32 29.07 L25.48 28.77 L25.58 28.05 L25.74 27.86 L25.79 27.41 L26.09 26.85 L26.62 26.90 L26.86 27.70 L27.34 27.49 L27.18 26.52 L28.81 24.56 L28.95 24.15 L29.25 23.95 L29.87 23.78 L30.09 25.29 L30.10 26.95 L30.22 27.34 L31.29 28.65 L31.29 29.20 L31.03 29.73 L31.64 30.44 L31.84 30.97 L31.87 31.61 L31.78 32.22 L31.52 33.28 L31.67 34.19 L31.51 34.96 L31.00 35.29 L30.88 36.12 L30.14 36.78 L29.97 37.12 L29.98 37.78 L30.22 38.22 L30.23 38.54 L29.75 39.14 L29.76 39.52 L30.12 39.63 L30.70 40.13 L30.38 40.50 L30.72 40.91 L30.80 41.44 L30.70 41.99 L30.35 41.96 L30.16 42.19 L30.18 42.95 L30.40 43.45 L30.12 44.05 L30.20 45.06 L30.83 45.36 L31.03 45.93 L30.90 46.27 L31.46 46.48 L31.90 46.89 L32.31 46.42 L32.64 46.87 L32.93 46.71 L33.29 47.27 L33.77 47.48 L34.20 47.52 L34.37 48.15 L34.87 48.68 L34.58 49.28 L34.21 49.28 L33.93 48.87 L33.73 48.90 L33.83 49.47 L33.44 49.93 L33.37 50.34 L32.94 50.94 L32.62 50.96 L33.03 51.65 L31.82 51.50 L31.32 51.01 L30.72 51.51 L30.33 51.41 L30.32 52.06 L30.21 52.48 L30.50 53.12 L30.23 53.66 Z" fill="rgba(201,169,97,0.05)" stroke="#C9A961" stroke-width="0.25" />
<path d="M33.50 65.42 L33.71 65.86 L33.67 66.19 L33.92 66.30 L34.03 66.71 L34.63 68.11 L34.88 68.31 L35.04 68.72 L35.58 68.94 L36.00 69.42 L37.42 69.97 L37.83 70.51 L37.89 70.87 L37.65 71.66 L37.23 71.39 L37.02 70.91 L36.33 71.94 L36.21 72.47 L36.31 72.90 L35.89 73.48 L35.50 73.81 L35.96 74.57 L36.07 74.29 L36.59 74.73 L36.63 75.07 L37.24 76.17 L37.15 76.37 L37.27 77.09 L36.48 77.36 L36.55 78.51 L36.11 78.75 L35.81 78.59 L35.67 78.91 L35.32 78.99 L35.03 79.48 L34.56 79.94 L34.44 80.60 L33.99 80.55 L33.55 80.72 L32.93 81.42 L32.78 81.94 L32.19 82.06 L31.58 81.93 L31.51 81.31 L31.58 80.84 L31.11 80.93 L31.08 80.42 L30.40 80.68 L30.79 79.69 L31.43 79.31 L30.73 78.87 L30.28 78.87 L30.22 79.69 L29.96 80.08 L30.13 80.30 L30.14 80.75 L29.68 80.72 L29.29 81.05 L29.13 80.54 L28.74 80.15 L28.37 79.27 L28.04 79.05 L27.69 77.96 L27.24 77.56 L27.15 76.80 L26.65 75.51 L26.77 74.92 L26.43 74.62 L26.06 73.91 L25.74 73.60 L25.72 73.12 L25.50 72.49 L25.63 72.29 L25.28 72.03 L25.30 71.51 L24.93 71.43 L24.68 71.04 L24.84 70.47 L24.68 70.30 L24.21 70.23 L24.29 69.82 L23.82 69.53 L23.67 68.71 L24.06 68.54 L24.09 67.88 L24.26 67.39 L24.61 67.09 L25.13 66.97 L25.82 66.49 L26.62 66.38 L27.01 65.94 L26.84 65.62 L27.16 65.22 L27.41 64.65 L27.43 64.20 L27.59 63.76 L28.31 63.12 L28.94 62.91 L29.20 62.00 L29.85 61.94 L30.53 61.99 L31.06 61.81 L31.14 62.23 L31.37 62.60 L31.73 62.89 L32.46 63.95 L32.60 64.59 L32.89 65.05 L33.50 65.42 Z" fill="rgba(201,169,97,0.05)" stroke="#C9A961" stroke-width="0.25" />
<path d="M69.40 111.46 L68.62 111.65 L68.12 111.51 L67.53 111.57 L67.04 111.38 L66.76 111.77 L66.62 112.20 L66.48 111.83 L65.82 111.62 L65.42 111.28 L64.70 111.68 L64.35 111.56 L64.08 111.80 L63.59 111.82 L63.41 111.99 L62.89 111.78 L62.59 111.87 L62.49 112.25 L61.89 112.82 L61.30 112.32 L61.26 111.66 L61.71 111.38 L61.53 110.86 L61.70 110.73 L61.52 110.19 L61.27 109.95 L61.69 108.51 L60.96 107.16 L60.91 106.69 L60.62 105.97 L60.46 105.87 L60.32 105.35 L59.95 104.72 L60.53 104.51 L59.98 103.91 L59.62 103.80 L59.45 102.81 L59.21 101.97 L59.50 101.27 L59.39 101.13 L59.58 100.49 L59.88 100.27 L60.11 101.00 L60.73 101.24 L61.25 101.55 L61.92 102.23 L62.50 102.33 L62.91 102.25 L63.75 102.57 L63.92 102.13 L64.72 102.36 L65.37 102.19 L65.70 101.92 L66.27 101.92 L66.33 102.11 L67.02 102.19 L67.37 102.61 L68.03 102.84 L68.18 103.06 L68.72 103.13 L69.77 103.54 L69.92 103.94 L70.68 104.28 L71.18 104.28 L71.89 104.87 L72.32 105.80 L72.48 105.97 L72.51 106.59 L72.39 107.07 L72.47 107.46 L72.19 107.80 L72.29 108.02 L71.51 108.85 L71.12 109.11 L71.05 109.52 L70.54 109.81 L70.24 109.77 L69.98 110.12 L69.73 110.09 L69.17 110.64 L69.47 111.05 L69.40 111.46 Z" fill="rgba(201,169,97,0.05)" stroke="#C9A961" stroke-width="0.25" />
<path d="M50.13 117.33 L50.30 117.27 L50.64 116.49 L50.91 116.26 L51.12 115.55 L51.63 115.14 L52.03 115.05 L52.43 114.74 L52.76 115.03 L53.59 115.12 L53.99 115.06 L54.73 115.33 L55.12 115.37 L55.21 115.90 L55.05 116.32 L55.78 116.70 L55.65 116.94 L55.86 117.60 L56.64 117.70 L56.96 117.23 L57.38 116.95 L57.80 117.43 L57.45 118.45 L57.57 118.74 L58.48 117.69 L59.05 117.21 L59.01 116.67 L59.11 116.46 L59.50 116.44 L59.86 116.90 L60.42 117.29 L60.66 117.13 L61.36 117.08 L62.21 116.68 L62.58 117.00 L63.30 116.95 L63.38 116.22 L63.66 116.16 L64.19 116.31 L64.62 115.68 L64.67 115.40 L65.13 115.02 L65.45 114.49 L65.58 113.68 L65.25 113.26 L65.47 112.62 L65.91 112.25 L66.62 112.20 L66.76 111.77 L67.04 111.38 L67.53 111.57 L68.12 111.51 L68.62 111.65 L69.40 111.46 L69.29 111.85 L69.41 112.32 L69.88 112.71 L70.56 112.76 L71.02 112.53 L71.82 112.34 L71.94 112.73 L72.54 113.07 L72.64 112.59 L72.58 111.71 L72.98 111.25 L73.33 111.64 L73.20 111.96 L73.46 112.43 L73.71 112.44 L73.99 113.17 L74.39 113.23 L74.78 113.56 L74.62 114.09 L74.35 114.51 L75.35 114.70 L75.59 115.05 L75.95 114.95 L76.07 114.47 L76.51 114.60 L76.70 114.45 L76.55 113.83 L77.11 113.99 L77.54 114.60 L77.96 114.91 L78.37 114.58 L78.77 114.55 L79.24 114.91 L78.97 115.23 L79.11 115.57 L78.81 115.85 L79.08 116.18 L79.18 116.74 L79.01 117.19 L79.77 117.38 L80.01 117.05 L80.35 117.42 L80.19 117.68 L80.24 118.24 L80.91 118.84 L81.04 119.36 L80.77 119.90 L81.46 120.94 L81.63 121.36 L81.69 121.92 L81.36 121.94 L81.23 122.23 L81.38 123.33 L80.62 123.83 L80.40 123.85 L80.48 124.61 L80.65 124.98 L80.36 125.24 L79.72 124.96 L79.27 125.08 L78.48 125.02 L78.49 125.65 L78.23 126.14 L78.16 126.97 L77.87 127.17 L77.56 126.92 L77.15 127.08 L77.01 127.56 L77.04 128.02 L77.45 129.19 L77.79 129.19 L78.06 129.73 L77.03 130.92 L76.67 131.17 L75.19 130.62 L74.28 130.41 L73.95 130.22 L73.47 129.69 L72.60 129.16 L72.33 129.19 L71.33 128.30 L70.76 128.09 L70.71 127.73 L70.23 127.26 L69.58 126.80 L68.87 126.61 L67.64 126.42 L67.18 126.24 L66.11 125.43 L65.58 125.40 L65.09 125.19 L64.31 124.67 L63.82 124.62 L63.23 124.37 L63.16 124.06 L62.14 123.63 L60.89 123.25 L60.31 123.18 L60.09 122.98 L59.05 122.54 L58.90 122.34 L57.83 121.65 L57.67 121.18 L56.84 120.77 L56.29 120.61 L56.04 120.32 L55.65 120.38 L55.16 120.24 L54.82 119.97 L54.65 119.46 L53.18 118.91 L52.52 118.52 L51.92 118.27 L51.34 117.85 L50.62 117.46 L50.13 117.33 Z M78.93 124.41 L79.54 124.59 L79.59 124.15 L78.84 124.20 L78.93 124.41 Z" fill="rgba(201,169,97,0.05)" stroke="#C9A961" stroke-width="0.25" />
<path d="M55.52 92.78 L55.69 93.20 L56.07 93.27 L56.69 93.84 L57.18 93.98 L57.35 93.62 L58.22 93.30 L58.33 94.00 L58.92 94.52 L59.36 95.46 L59.55 96.08 L59.94 96.42 L60.11 96.29 L60.85 97.22 L61.11 97.82 L61.61 98.23 L61.62 98.92 L61.95 99.23 L62.16 99.80 L62.36 99.98 L62.91 101.23 L63.36 101.78 L63.92 102.13 L63.75 102.57 L62.91 102.25 L62.50 102.33 L61.92 102.23 L61.25 101.55 L60.73 101.24 L60.11 101.00 L59.88 100.27 L59.58 100.49 L59.39 101.13 L59.50 101.27 L59.21 101.97 L59.45 102.81 L59.62 103.80 L59.98 103.91 L60.53 104.51 L59.95 104.72 L60.32 105.35 L60.46 105.87 L60.62 105.97 L60.91 106.69 L60.96 107.16 L61.69 108.51 L61.27 109.95 L61.52 110.19 L61.70 110.73 L61.53 110.86 L61.71 111.38 L61.26 111.66 L61.30 112.32 L61.89 112.82 L62.49 112.25 L62.59 111.87 L62.89 111.78 L63.41 111.99 L63.59 111.82 L64.08 111.80 L64.35 111.56 L64.70 111.68 L65.42 111.28 L65.82 111.62 L66.48 111.83 L66.62 112.20 L65.91 112.25 L65.47 112.62 L65.25 113.26 L65.58 113.68 L65.45 114.49 L65.13 115.02 L64.67 115.40 L64.62 115.68 L64.19 116.31 L63.66 116.16 L63.38 116.22 L63.30 116.95 L62.58 117.00 L62.21 116.68 L61.36 117.08 L60.66 117.13 L60.42 117.29 L59.86 116.90 L59.50 116.44 L59.11 116.46 L59.01 116.67 L59.05 117.21 L58.48 117.69 L57.57 118.74 L57.45 118.45 L57.80 117.43 L57.38 116.95 L56.96 117.23 L56.64 117.70 L55.86 117.60 L55.65 116.94 L55.78 116.70 L55.05 116.32 L55.21 115.90 L55.12 115.37 L54.73 115.33 L53.99 115.06 L53.59 115.12 L52.76 115.03 L52.43 114.74 L53.16 114.34 L53.16 113.32 L52.94 112.79 L52.55 112.83 L52.48 112.29 L52.13 112.15 L51.81 111.81 L51.76 111.09 L51.45 110.59 L50.97 111.05 L50.23 111.17 L50.16 110.45 L49.94 110.14 L49.92 109.75 L49.65 109.61 L49.97 108.84 L50.37 108.58 L50.00 108.11 L50.23 107.47 L50.45 107.04 L51.10 107.21 L51.85 107.05 L52.37 107.17 L52.27 106.62 L52.39 106.34 L52.26 105.96 L52.45 105.23 L52.34 105.02 L52.49 104.50 L52.29 103.85 L52.36 103.54 L52.16 103.10 L51.69 102.60 L51.40 102.49 L51.43 101.96 L51.64 101.69 L52.42 101.55 L52.90 101.72 L53.30 101.05 L53.85 100.37 L54.05 100.48 L54.68 100.41 L54.96 100.18 L55.06 99.51 L55.22 99.21 L55.52 99.18 L55.78 99.43 L56.08 99.18 L55.88 98.50 L55.65 98.45 L55.64 97.76 L55.91 97.67 L55.94 97.17 L55.49 96.83 L55.65 96.59 L55.55 96.24 L55.00 95.16 L54.95 94.82 L54.35 94.85 L53.77 93.97 L53.99 93.63 L55.23 93.49 L55.20 92.92 L55.52 92.78 Z M60.00 116.00 L60.01 116.32 L60.41 116.52 L60.74 116.20 L60.00 116.00 Z" fill="rgba(201,169,97,0.05)" stroke="#C9A961" stroke-width="0.25" />
<path d="M18.65 54.12 L18.84 53.92 L18.74 53.18 L19.09 52.87 L20.14 52.25 L19.99 51.68 L19.46 51.64 L19.34 51.46 L18.84 51.49 L18.32 50.54 L18.05 50.47 L17.84 50.02 L17.91 49.81 L17.68 49.39 L17.91 48.74 L18.42 48.70 L18.66 48.39 L19.17 48.12 L19.02 47.52 L19.38 46.83 L19.08 46.43 L17.94 46.19 L18.57 45.61 L18.15 44.84 L18.07 44.53 L18.26 43.46 L18.09 42.94 L19.02 42.80 L18.83 42.34 L18.61 41.28 L18.38 41.07 L18.46 40.65 L18.24 40.33 L18.86 39.73 L19.22 38.91 L19.48 38.64 L20.50 38.69 L20.95 39.01 L21.23 38.13 L21.82 38.09 L21.84 37.46 L21.69 37.33 L21.91 36.76 L22.23 36.32 L22.50 36.18 L23.22 36.08 L23.72 36.33 L23.67 36.92 L24.00 37.20 L23.66 38.62 L23.86 38.91 L23.58 39.41 L23.26 39.68 L23.19 40.25 L23.38 40.91 L23.97 41.23 L24.61 41.90 L24.63 42.32 L24.31 42.65 L23.97 43.46 L23.38 44.21 L23.17 45.14 L23.56 46.08 L23.91 46.55 L24.08 46.99 L24.60 46.95 L25.20 47.66 L25.96 48.81 L25.98 49.05 L26.56 49.38 L27.04 49.85 L27.44 50.37 L27.65 51.24 L28.02 51.49 L28.34 52.59 L28.45 53.70 L29.20 55.18 L29.33 55.59 L29.70 56.25 L29.83 56.87 L30.14 57.07 L30.36 57.43 L29.60 57.79 L29.41 58.32 L28.46 59.02 L27.85 59.15 L27.59 58.84 L26.78 59.63 L26.43 59.58 L26.20 59.15 L26.00 59.18 L25.61 58.66 L25.80 58.23 L25.78 57.68 L25.37 57.57 L24.81 58.09 L23.82 58.04 L23.64 57.90 L23.78 57.27 L23.54 57.03 L22.82 56.94 L22.21 57.21 L21.88 57.56 L21.81 57.96 L21.45 58.42 L21.33 58.86 L21.10 58.89 L20.73 58.43 L20.56 57.47 L19.91 57.23 L19.65 56.89 L19.14 56.79 L18.87 56.53 L18.47 56.45 L18.95 55.99 L19.06 55.37 L18.78 55.03 L18.65 54.12 Z" fill="rgba(201,169,97,0.05)" stroke="#C9A961" stroke-width="0.25" />
<path d="M34.47 90.19 L34.92 90.13 L35.19 90.74 L34.98 91.15 L35.24 91.75 L35.03 92.07 L34.74 91.98 L34.87 91.30 L34.69 90.53 L34.47 90.19 Z" fill="rgba(201,169,97,0.05)" stroke="#C9A961" stroke-width="0.25" />
<path d="M69.40 111.46 L69.47 111.05 L69.17 110.64 L69.73 110.09 L69.98 110.12 L70.24 109.77 L70.54 109.81 L71.05 109.52 L71.12 109.11 L71.51 108.85 L72.29 108.02 L72.19 107.80 L72.47 107.46 L72.39 107.07 L72.51 106.59 L72.48 105.97 L72.32 105.80 L71.89 104.87 L71.18 104.28 L70.68 104.28 L69.92 103.94 L69.77 103.54 L68.72 103.13 L68.18 103.06 L68.03 102.84 L67.37 102.61 L67.02 102.19 L66.33 102.11 L66.27 101.92 L65.70 101.92 L65.37 102.19 L64.72 102.36 L63.92 102.13 L63.36 101.78 L62.91 101.23 L62.36 99.98 L62.16 99.80 L61.95 99.23 L61.62 98.92 L61.61 98.23 L61.11 97.82 L60.85 97.22 L60.11 96.29 L59.94 96.42 L59.55 96.08 L59.36 95.46 L58.92 94.52 L58.33 94.00 L58.22 93.30 L58.64 93.16 L59.24 93.27 L59.55 93.13 L60.03 93.48 L60.24 93.49 L60.77 94.32 L61.11 94.31 L61.23 93.55 L62.01 93.13 L62.18 92.68 L62.81 92.50 L62.47 91.97 L62.54 91.63 L62.24 91.40 L62.22 91.06 L61.85 90.56 L61.21 90.25 L61.23 89.48 L60.98 88.92 L61.34 88.41 L62.15 87.96 L61.93 87.51 L62.38 86.85 L63.03 86.30 L63.58 86.31 L63.98 86.14 L64.47 86.17 L65.29 85.95 L65.56 85.46 L65.72 85.95 L65.94 86.08 L65.84 86.45 L66.25 86.65 L67.01 86.85 L67.43 86.57 L67.66 86.83 L68.38 87.18 L68.93 87.23 L69.34 86.88 L70.09 86.46 L70.61 86.27 L71.12 86.56 L71.06 86.86 L70.73 87.22 L70.56 88.44 L69.72 89.29 L70.15 89.86 L70.00 90.17 L70.43 90.39 L70.32 90.66 L70.39 91.24 L70.79 91.30 L70.97 91.52 L70.90 91.88 L71.61 91.92 L72.19 92.12 L72.25 92.55 L72.11 93.26 L72.64 93.47 L73.09 93.88 L73.07 94.47 L72.44 94.78 L72.37 95.32 L72.66 95.42 L73.03 95.84 L73.22 96.39 L73.05 96.61 L73.77 96.96 L74.30 97.07 L74.77 97.45 L75.15 97.02 L75.85 96.73 L76.21 96.80 L76.96 97.67 L77.23 98.19 L77.67 98.11 L78.07 98.54 L78.53 98.78 L79.02 98.86 L79.06 99.69 L79.40 100.74 L80.00 101.00 L80.49 100.25 L80.88 99.82 L81.46 99.49 L82.09 99.80 L82.82 99.65 L83.36 99.76 L83.64 100.13 L84.27 100.19 L84.83 100.43 L84.59 100.93 L84.80 101.35 L84.75 101.78 L84.43 101.94 L84.36 102.35 L83.75 102.93 L83.70 103.30 L83.14 103.56 L82.87 103.91 L82.41 103.96 L82.27 104.54 L82.53 105.02 L82.37 105.21 L82.02 105.10 L81.55 105.44 L81.54 106.03 L81.33 106.69 L81.81 107.04 L81.72 107.43 L81.29 107.77 L81.05 108.22 L81.19 108.53 L80.95 108.96 L80.58 109.21 L80.41 109.55 L80.58 109.84 L80.33 110.29 L80.29 110.79 L79.46 111.50 L79.91 112.16 L80.20 112.05 L80.48 112.24 L80.35 112.72 L80.41 113.60 L80.27 113.80 L80.48 115.33 L80.58 115.63 L80.41 115.88 L80.65 116.18 L80.21 116.59 L80.01 117.05 L79.77 117.38 L79.01 117.19 L79.18 116.74 L79.08 116.18 L78.81 115.85 L79.11 115.57 L78.97 115.23 L79.24 114.91 L78.77 114.55 L78.37 114.58 L77.96 114.91 L77.54 114.60 L77.11 113.99 L76.55 113.83 L76.70 114.45 L76.51 114.60 L76.07 114.47 L75.95 114.95 L75.59 115.05 L75.35 114.70 L74.35 114.51 L74.62 114.09 L74.78 113.56 L74.39 113.23 L73.99 113.17 L73.71 112.44 L73.46 112.43 L73.20 111.96 L73.33 111.64 L72.98 111.25 L72.58 111.71 L72.64 112.59 L72.54 113.07 L71.94 112.73 L71.82 112.34 L71.02 112.53 L70.56 112.76 L69.88 112.71 L69.41 112.32 L69.29 111.85 L69.40 111.46 Z M78.49 110.13 L79.04 110.43 L79.14 110.25 L78.46 109.79 L78.49 110.13 Z" fill="rgba(201,169,97,0.05)" stroke="#C9A961" stroke-width="0.25" />
<path d="M50.23 107.47 L49.86 106.74 L49.44 107.04 L48.76 106.82 L48.95 106.53 L48.20 106.62 L47.46 105.85 L46.63 105.67 L46.50 105.30 L46.78 105.13 L46.66 104.86 L46.85 104.22 L47.08 103.88 L46.86 103.62 L47.13 102.93 L47.22 102.23 L46.95 101.73 L46.68 102.03 L46.34 102.01 L45.56 102.29 L45.40 102.11 L44.70 102.00 L44.82 101.56 L45.44 101.15 L45.44 100.39 L45.53 100.09 L45.35 99.81 L45.52 99.55 L46.01 99.41 L46.12 98.72 L45.96 98.36 L46.13 97.99 L46.74 97.65 L46.91 97.31 L46.40 96.85 L46.58 96.59 L46.38 96.29 L46.68 96.14 L47.03 96.34 L47.58 96.20 L47.99 95.53 L48.61 94.99 L49.07 94.96 L49.08 94.44 L49.63 94.05 L50.14 93.24 L50.31 92.76 L50.12 91.93 L50.32 91.56 L51.19 91.65 L51.88 92.01 L52.53 91.79 L52.77 91.92 L53.20 91.44 L53.45 91.36 L54.70 91.73 L54.97 92.18 L55.47 92.59 L55.52 92.78 L55.20 92.92 L55.23 93.49 L53.99 93.63 L53.77 93.97 L54.35 94.85 L54.95 94.82 L55.00 95.16 L55.55 96.24 L55.65 96.59 L55.49 96.83 L55.94 97.17 L55.91 97.67 L55.64 97.76 L55.65 98.45 L55.88 98.50 L56.08 99.18 L55.78 99.43 L55.52 99.18 L55.22 99.21 L55.06 99.51 L54.96 100.18 L54.68 100.41 L54.05 100.48 L53.85 100.37 L53.30 101.05 L52.90 101.72 L52.42 101.55 L51.64 101.69 L51.43 101.96 L51.40 102.49 L51.69 102.60 L52.16 103.10 L52.36 103.54 L52.29 103.85 L52.49 104.50 L52.34 105.02 L52.45 105.23 L52.26 105.96 L52.39 106.34 L52.27 106.62 L52.37 107.17 L51.85 107.05 L51.10 107.21 L50.45 107.04 L50.23 107.47 Z" fill="rgba(201,169,97,0.05)" stroke="#C9A961" stroke-width="0.25" />
<path d="M33.50 65.42 L33.90 64.95 L34.34 65.08 L34.86 64.74 L35.20 65.06 L35.18 65.32 L35.49 65.59 L36.48 65.72 L36.99 65.54 L37.10 65.31 L38.10 65.43 L38.64 65.28 L39.24 65.26 L39.81 65.71 L39.97 65.11 L40.18 64.76 L40.79 64.66 L40.86 65.37 L41.20 65.77 L41.29 66.35 L41.56 67.41 L42.03 67.12 L42.40 66.37 L42.30 64.94 L42.62 63.96 L43.37 63.85 L43.66 64.44 L43.52 64.83 L43.51 65.88 L43.41 66.21 L43.84 67.30 L43.88 68.04 L44.19 68.72 L44.18 69.11 L44.70 69.86 L44.79 70.36 L45.25 70.99 L45.70 71.92 L46.50 71.95 L47.01 71.78 L47.32 71.17 L48.23 71.18 L48.58 71.27 L48.73 70.98 L49.12 70.67 L49.11 70.14 L48.91 69.75 L49.33 69.55 L49.55 69.24 L49.61 68.74 L49.97 68.36 L50.33 68.23 L50.83 68.58 L51.16 68.42 L51.11 67.88 L51.78 67.12 L51.81 66.40 L52.17 66.18 L53.50 65.56 L54.03 65.82 L54.19 67.06 L54.14 67.26 L53.57 67.59 L53.31 68.33 L53.25 69.31 L53.06 69.65 L53.33 69.83 L53.34 70.14 L53.71 71.22 L53.08 71.91 L53.06 72.16 L52.69 72.47 L52.52 72.88 L52.63 73.25 L52.10 74.10 L52.12 74.43 L51.79 74.56 L51.43 74.48 L51.09 74.66 L50.67 75.24 L50.23 75.10 L49.87 75.30 L49.48 75.25 L48.89 74.85 L48.43 74.83 L48.63 75.33 L48.54 75.48 L47.93 75.48 L47.74 75.81 L47.15 76.26 L46.61 76.33 L46.30 76.10 L46.16 76.63 L45.67 76.81 L45.46 77.45 L45.46 78.01 L44.85 78.35 L44.45 78.39 L44.33 78.72 L43.82 79.13 L43.82 79.51 L43.44 80.05 L42.84 79.95 L42.68 79.71 L42.30 79.68 L41.61 79.27 L41.25 79.24 L40.97 79.50 L40.78 78.61 L39.76 78.99 L39.63 79.30 L38.47 79.57 L38.10 79.78 L37.89 80.10 L37.56 79.95 L37.28 79.41 L36.92 79.29 L36.55 78.51 L36.48 77.36 L37.27 77.09 L37.15 76.37 L37.24 76.17 L36.63 75.07 L36.59 74.73 L36.07 74.29 L35.96 74.57 L35.50 73.81 L35.89 73.48 L36.31 72.90 L36.21 72.47 L36.33 71.94 L37.02 70.91 L37.23 71.39 L37.65 71.66 L37.89 70.87 L37.83 70.51 L37.42 69.97 L36.00 69.42 L35.58 68.94 L35.04 68.72 L34.88 68.31 L34.63 68.11 L34.03 66.71 L33.92 66.30 L33.67 66.19 L33.71 65.86 L33.50 65.42 Z" fill="rgba(201,169,97,0.05)" stroke="#C9A961" stroke-width="0.25" />
<path d="M52.43 114.74 L52.03 115.05 L51.63 115.14 L51.12 115.55 L50.91 116.26 L50.64 116.49 L50.30 117.27 L50.13 117.33 L50.06 117.19 L49.29 116.77 L49.42 116.32 L48.96 116.09 L49.07 115.75 L48.64 115.27 L47.94 115.06 L47.39 114.01 L46.97 113.76 L46.95 113.40 L46.41 113.01 L45.63 112.64 L44.86 112.12 L44.33 111.88 L43.88 111.45 L43.77 110.76 L43.45 110.44 L43.47 110.03 L42.97 109.68 L42.77 109.40 L42.29 109.16 L42.45 108.69 L42.20 108.21 L41.56 107.62 L41.11 107.71 L41.29 106.61 L41.17 105.88 L40.82 105.93 L40.33 105.81 L40.51 105.06 L41.07 104.95 L41.03 105.28 L41.33 105.49 L41.80 103.80 L41.87 103.24 L41.84 102.17 L41.45 101.42 L41.73 101.29 L42.11 100.44 L43.17 99.63 L43.72 98.92 L44.73 99.44 L45.02 99.13 L45.30 99.27 L45.70 99.16 L46.12 98.72 L46.01 99.41 L45.52 99.55 L45.35 99.81 L45.53 100.09 L45.44 100.39 L45.44 101.15 L44.82 101.56 L44.70 102.00 L45.40 102.11 L45.56 102.29 L46.34 102.01 L46.68 102.03 L46.95 101.73 L47.22 102.23 L47.13 102.93 L46.86 103.62 L47.08 103.88 L46.85 104.22 L46.66 104.86 L46.78 105.13 L46.50 105.30 L46.63 105.67 L47.46 105.85 L48.20 106.62 L48.95 106.53 L48.76 106.82 L49.44 107.04 L49.86 106.74 L50.23 107.47 L50.00 108.11 L50.37 108.58 L49.97 108.84 L49.65 109.61 L49.92 109.75 L49.94 110.14 L50.16 110.45 L50.23 111.17 L50.97 111.05 L51.45 110.59 L51.76 111.09 L51.81 111.81 L52.13 112.15 L52.48 112.29 L52.55 112.83 L52.94 112.79 L53.16 113.32 L53.16 114.34 L52.43 114.74 Z" fill="rgba(201,169,97,0.05)" stroke="#C9A961" stroke-width="0.25" />
<path d="M53.83 83.31 L54.31 83.59 L54.37 83.94 L54.78 84.00 L55.31 84.39 L56.18 84.10 L56.59 84.11 L57.40 83.87 L58.04 83.91 L58.24 84.49 L58.24 84.87 L59.11 85.06 L59.07 84.25 L59.16 83.63 L59.39 83.37 L59.45 82.46 L59.88 81.98 L60.33 82.26 L60.96 82.81 L61.34 82.92 L61.25 83.65 L61.47 84.32 L61.91 84.46 L62.15 85.65 L62.08 86.24 L61.90 86.36 L62.38 86.85 L61.93 87.51 L62.15 87.96 L61.34 88.41 L60.98 88.92 L61.23 89.48 L61.21 90.25 L61.85 90.56 L62.22 91.06 L62.24 91.40 L62.54 91.63 L62.47 91.97 L62.81 92.50 L62.18 92.68 L62.01 93.13 L61.23 93.55 L61.11 94.31 L60.77 94.32 L60.24 93.49 L60.03 93.48 L59.55 93.13 L59.24 93.27 L58.64 93.16 L58.22 93.30 L57.35 93.62 L57.18 93.98 L56.69 93.84 L56.07 93.27 L55.69 93.20 L55.52 92.78 L55.47 92.59 L54.97 92.18 L54.70 91.73 L53.45 91.36 L53.20 91.44 L52.77 91.92 L52.53 91.79 L51.88 92.01 L51.19 91.65 L50.32 91.56 L50.12 91.93 L50.31 92.76 L50.14 93.24 L49.63 94.05 L49.08 94.44 L49.07 94.96 L48.61 94.99 L47.99 95.53 L47.58 96.20 L47.03 96.34 L46.68 96.14 L46.38 96.29 L46.43 95.71 L46.70 95.36 L46.54 94.90 L46.49 94.00 L45.75 92.93 L45.95 92.33 L45.53 91.80 L45.00 91.92 L44.57 91.59 L43.81 91.36 L43.16 91.36 L42.87 91.09 L42.88 90.67 L42.25 89.83 L41.76 89.43 L41.75 88.92 L41.87 88.42 L41.61 88.19 L41.14 88.41 L40.51 87.76 L40.45 87.30 L40.06 86.56 L39.72 86.17 L39.62 85.39 L39.42 84.84 L39.62 84.64 L40.32 84.53 L40.91 84.65 L40.98 84.96 L41.32 85.09 L41.48 84.42 L41.20 83.39 L41.34 83.38 L41.43 83.46 L41.42 83.50 L41.51 83.65 L41.96 84.30 L42.42 84.79 L43.04 84.62 L43.17 84.31 L42.74 83.79 L42.35 83.68 L42.59 83.26 L42.93 83.06 L43.32 82.62 L43.84 83.09 L44.31 82.97 L44.46 83.11 L44.85 82.65 L45.25 82.53 L45.53 82.72 L46.30 82.55 L46.42 82.07 L47.04 82.14 L47.27 82.36 L47.11 82.84 L47.22 83.22 L47.66 82.88 L48.32 82.94 L48.73 82.65 L48.86 82.22 L49.26 81.83 L49.78 81.94 L50.12 81.46 L50.55 81.54 L50.82 82.06 L50.99 81.96 L51.46 82.23 L51.92 82.32 L52.21 82.70 L52.45 82.65 L52.83 82.90 L53.27 82.97 L53.53 83.25 L53.83 83.31 Z" fill="rgba(201,169,97,0.05)" stroke="#C9A961" stroke-width="0.25" />
<path d="M23.67 68.71 L23.62 68.30 L22.81 67.25 L22.99 66.78 L22.94 66.19 L22.68 65.71 L21.52 64.71 L21.81 64.28 L21.35 63.64 L21.14 63.03 L20.18 62.16 L20.16 61.98 L18.76 60.88 L18.26 60.25 L18.13 59.84 L17.59 59.27 L17.82 59.13 L17.71 58.78 L17.03 57.84 L16.68 57.03 L16.82 56.85 L16.52 55.93 L15.92 55.25 L17.36 53.71 L17.67 53.52 L18.07 53.60 L18.65 54.12 L18.78 55.03 L19.06 55.37 L18.95 55.99 L18.47 56.45 L18.87 56.53 L19.14 56.79 L19.65 56.89 L19.91 57.23 L20.56 57.47 L20.73 58.43 L21.10 58.89 L21.33 58.86 L21.45 58.42 L21.81 57.96 L21.88 57.56 L22.21 57.21 L22.82 56.94 L23.54 57.03 L23.78 57.27 L23.64 57.90 L23.82 58.04 L24.81 58.09 L25.37 57.57 L25.78 57.68 L25.80 58.23 L25.61 58.66 L26.00 59.18 L26.20 59.15 L26.43 59.58 L26.78 59.63 L27.59 58.84 L27.85 59.15 L28.46 59.02 L29.41 58.32 L29.60 57.79 L30.36 57.43 L30.14 57.07 L29.83 56.87 L29.70 56.25 L29.33 55.59 L29.20 55.18 L28.45 53.70 L28.98 53.82 L29.33 53.64 L29.59 53.75 L30.23 53.66 L30.57 54.73 L31.09 55.04 L31.37 55.57 L31.06 55.73 L31.20 56.33 L31.15 56.61 L31.33 57.19 L31.95 57.72 L31.88 58.30 L32.27 59.18 L31.95 59.61 L32.30 59.96 L32.57 60.03 L32.84 60.70 L33.06 60.75 L32.84 61.37 L33.00 61.85 L33.69 61.89 L34.09 61.53 L34.74 61.67 L34.98 61.62 L35.71 61.83 L35.95 62.27 L36.54 62.72 L36.41 63.08 L36.59 63.56 L36.49 63.88 L36.03 64.41 L35.22 64.48 L34.34 65.08 L33.90 64.95 L33.50 65.42 L32.89 65.05 L32.60 64.59 L32.46 63.95 L31.73 62.89 L31.37 62.60 L31.14 62.23 L31.06 61.81 L30.53 61.99 L29.85 61.94 L29.20 62.00 L28.94 62.91 L28.31 63.12 L27.59 63.76 L27.43 64.20 L27.41 64.65 L27.16 65.22 L26.84 65.62 L27.01 65.94 L26.62 66.38 L25.82 66.49 L25.13 66.97 L24.61 67.09 L24.26 67.39 L24.09 67.88 L24.06 68.54 L23.67 68.71 Z" fill="rgba(201,169,97,0.05)" stroke="#C9A961" stroke-width="0.25" />
<path d="M8.99 49.21 L10.85 46.47 L11.21 46.02 L12.16 45.61 L12.66 45.58 L13.67 44.55 L13.86 43.28 L14.03 42.77 L14.35 42.59 L14.71 42.90 L14.64 43.13 L14.87 43.75 L15.21 43.76 L15.73 44.46 L15.58 45.19 L15.98 45.26 L16.36 45.13 L16.40 45.57 L16.59 45.96 L17.34 45.78 L17.94 46.19 L19.08 46.43 L19.38 46.83 L19.02 47.52 L19.17 48.12 L18.66 48.39 L18.42 48.70 L17.91 48.74 L17.68 49.39 L17.91 49.81 L17.84 50.02 L18.05 50.47 L18.32 50.54 L18.84 51.49 L19.34 51.46 L19.46 51.64 L19.99 51.68 L20.14 52.25 L19.09 52.87 L18.74 53.18 L18.84 53.92 L18.65 54.12 L18.07 53.60 L17.67 53.52 L17.36 53.71 L15.92 55.25 L15.98 54.86 L15.56 54.36 L14.14 52.97 L14.08 52.62 L13.74 52.02 L13.08 51.49 L12.32 50.96 L11.49 50.49 L8.99 49.21 Z" fill="rgba(201,169,97,0.05)" stroke="#C9A961" stroke-width="0.25" />
<path d="M36.55 78.51 L36.92 79.29 L37.28 79.41 L37.56 79.95 L37.89 80.10 L38.06 80.91 L38.41 81.31 L38.38 81.62 L38.57 82.35 L38.96 82.97 L39.08 83.71 L38.97 84.05 L39.33 84.24 L39.62 84.64 L39.42 84.84 L39.62 85.39 L39.72 86.17 L40.06 86.56 L40.45 87.30 L40.51 87.76 L41.14 88.41 L41.61 88.19 L41.87 88.42 L41.75 88.92 L41.76 89.43 L42.25 89.83 L42.88 90.67 L42.87 91.09 L43.16 91.36 L43.81 91.36 L44.57 91.59 L45.00 91.92 L45.53 91.80 L45.95 92.33 L45.75 92.93 L46.49 94.00 L46.54 94.90 L46.70 95.36 L46.43 95.71 L46.38 96.29 L46.58 96.59 L46.40 96.85 L46.91 97.31 L46.74 97.65 L46.13 97.99 L45.96 98.36 L46.12 98.72 L45.70 99.16 L45.30 99.27 L45.02 99.13 L44.73 99.44 L43.72 98.92 L43.17 99.63 L42.11 100.44 L41.73 101.29 L41.45 101.42 L40.05 99.66 L39.63 99.23 L39.46 98.63 L39.52 98.43 L39.34 97.78 L38.55 97.06 L38.28 96.19 L37.73 95.52 L37.34 95.30 L37.52 94.76 L37.50 94.44 L37.07 93.86 L36.33 93.36 L35.58 93.01 L35.63 92.48 L35.03 92.07 L35.24 91.75 L34.98 91.15 L35.19 90.74 L34.92 90.13 L34.47 90.19 L34.61 89.52 L34.25 88.76 L33.78 88.38 L33.60 87.81 L33.10 87.36 L32.17 86.80 L31.09 86.25 L31.10 85.58 L31.47 85.33 L31.16 84.37 L30.95 84.06 L30.98 83.56 L30.30 82.60 L30.34 82.42 L29.85 81.71 L29.29 81.05 L29.68 80.72 L30.14 80.75 L30.13 80.30 L29.96 80.08 L30.22 79.69 L30.28 78.87 L30.73 78.87 L31.43 79.31 L30.79 79.69 L30.40 80.68 L31.08 80.42 L31.11 80.93 L31.58 80.84 L31.51 81.31 L31.58 81.93 L32.19 82.06 L32.78 81.94 L32.93 81.42 L33.55 80.72 L33.99 80.55 L34.44 80.60 L34.56 79.94 L35.03 79.48 L35.32 78.99 L35.67 78.91 L35.81 78.59 L36.11 78.75 L36.55 78.51 Z" fill="rgba(201,169,97,0.05)" stroke="#C9A961" stroke-width="0.25" />
<path d="M58.20 57.94 L57.83 57.57 L57.78 57.29 L57.05 56.90 L56.74 56.62 L56.16 56.51 L55.74 56.56 L54.65 56.17 L54.36 55.92 L54.11 56.13 L53.79 57.00 L53.51 57.19 L53.32 57.68 L53.31 58.15 L53.85 58.94 L53.75 59.17 L53.95 59.55 L54.26 59.76 L53.86 60.05 L53.43 60.98 L52.69 61.29 L52.37 61.70 L51.44 62.04 L50.80 61.20 L50.42 61.06 L49.62 61.27 L49.31 61.56 L49.08 62.39 L48.86 62.60 L48.54 62.38 L47.88 62.48 L47.48 62.69 L47.18 63.33 L46.95 63.61 L46.94 64.05 L47.45 64.39 L47.41 64.71 L46.62 64.94 L46.23 64.53 L45.87 64.51 L45.43 64.73 L45.36 65.09 L44.90 65.14 L44.90 65.55 L44.50 66.33 L44.06 66.40 L43.66 66.81 L43.41 66.21 L43.51 65.88 L43.52 64.83 L43.66 64.44 L43.37 63.85 L43.75 63.77 L43.90 63.34 L43.70 62.83 L43.64 62.18 L43.88 61.97 L44.41 61.88 L44.53 61.24 L44.30 60.84 L43.51 61.14 L42.94 59.87 L42.51 59.35 L42.59 58.13 L42.03 57.64 L41.67 56.96 L41.81 56.43 L41.68 56.25 L42.03 55.93 L42.20 55.46 L42.82 55.14 L43.18 54.51 L43.18 53.90 L42.88 53.51 L43.18 53.12 L42.88 52.50 L43.53 52.33 L44.42 52.40 L44.98 52.83 L45.50 52.94 L45.72 52.62 L45.98 52.74 L46.88 52.31 L46.96 52.17 L46.97 51.22 L46.90 50.11 L46.60 49.02 L47.04 48.42 L47.06 47.94 L46.78 47.65 L46.72 47.13 L46.44 46.44 L46.12 46.59 L46.01 47.03 L45.63 47.13 L45.37 47.45 L44.63 47.17 L44.49 47.46 L43.78 47.44 L43.52 47.13 L43.03 47.16 L42.32 47.74 L41.61 47.66 L41.24 47.20 L40.91 47.06 L40.50 46.22 L40.21 46.04 L39.20 46.58 L38.52 46.43 L37.72 46.44 L37.73 46.07 L37.20 45.38 L37.07 44.50 L36.68 44.52 L36.14 44.21 L35.89 43.91 L35.55 43.97 L34.14 43.37 L33.35 43.44 L33.11 43.18 L32.83 43.33 L32.43 43.29 L32.02 42.41 L31.72 42.10 L31.55 42.37 L30.89 41.98 L30.70 41.99 L30.80 41.44 L30.72 40.91 L30.38 40.50 L30.70 40.13 L30.12 39.63 L29.76 39.52 L29.75 39.14 L30.23 38.54 L30.22 38.22 L29.98 37.78 L29.97 37.12 L30.14 36.78 L30.88 36.12 L31.00 35.29 L31.51 34.96 L31.67 34.19 L31.52 33.28 L31.78 32.22 L31.87 31.61 L31.84 30.97 L31.64 30.44 L31.03 29.73 L31.29 29.20 L31.29 28.65 L30.22 27.34 L30.10 26.95 L30.09 25.29 L29.87 23.78 L38.58 20.80 L42.93 17.33 L46.37 12.96 L46.68 12.49 L47.68 8.86 L47.81 8.33 L48.29 8.67 L49.07 8.64 L49.03 7.85 L48.65 6.87 L48.92 6.21 L48.98 5.49 L48.61 5.09 L48.35 5.06 L47.80 4.61 L47.24 3.74 L47.10 3.13 L46.74 2.71 L46.15 2.79 L46.15 2.20 L46.50 2.34 L46.93 2.24 L47.67 2.63 L48.40 2.52 L48.75 2.31 L49.31 1.64 L50.10 1.98 L50.55 2.44 L50.87 2.50 L51.17 2.99 L51.80 3.11 L52.05 2.79 L52.43 3.04 L52.67 3.55 L52.66 3.90 L53.13 4.16 L53.82 4.32 L54.16 4.84 L54.96 5.14 L55.36 5.94 L55.32 6.25 L56.09 7.71 L56.02 8.11 L56.10 8.73 L56.42 8.92 L56.83 8.91 L57.38 9.22 L57.74 9.20 L57.97 9.51 L58.46 9.85 L58.72 9.76 L59.14 10.60 L60.44 10.65 L60.89 10.82 L60.95 11.23 L61.55 12.13 L61.57 12.35 L61.94 12.78 L61.77 13.51 L61.51 14.03 L61.78 14.35 L62.08 14.39 L62.33 14.80 L62.65 14.68 L63.21 14.75 L63.98 14.60 L64.36 15.30 L64.65 15.42 L64.61 16.49 L64.79 16.69 L64.51 17.75 L64.24 18.06 L64.60 18.51 L64.98 18.74 L64.99 19.04 L65.76 18.95 L65.81 19.31 L66.31 19.63 L66.58 19.64 L67.20 19.28 L67.77 19.42 L68.48 19.12 L69.05 19.57 L69.44 19.54 L70.08 19.79 L70.17 20.05 L70.74 19.89 L70.98 19.62 L71.37 19.72 L71.80 19.49 L72.53 18.89 L72.82 19.14 L73.18 19.05 L73.44 18.68 L73.75 18.71 L74.13 17.80 L74.38 17.91 L74.82 17.44 L75.05 18.08 L75.38 17.89 L75.83 18.11 L76.87 18.41 L77.55 19.30 L77.96 19.18 L78.06 18.95 L78.59 18.91 L78.91 19.22 L79.31 18.51 L79.91 18.40 L80.30 17.93 L80.83 18.28 L81.19 18.03 L81.52 18.56 L81.95 18.57 L82.14 18.84 L82.78 19.03 L83.06 19.36 L82.98 19.87 L83.27 20.01 L84.19 19.79 L84.47 20.29 L85.06 20.05 L85.23 20.71 L85.68 20.48 L86.00 20.69 L86.08 21.21 L86.94 21.31 L87.22 21.51 L87.26 22.07 L86.67 23.06 L82.44 29.82 L83.12 30.19 L83.46 30.12 L84.03 30.46 L85.14 29.89 L85.66 30.17 L85.89 30.57 L86.24 30.71 L86.42 31.16 L86.93 31.82 L87.26 32.04 L87.46 32.40 L88.04 32.95 L88.08 33.49 L87.90 33.89 L87.57 34.05 L87.18 33.81 L87.12 33.54 L86.54 33.47 L86.57 33.79 L86.37 34.06 L85.89 33.53 L85.65 33.11 L85.53 32.59 L84.50 32.38 L84.25 32.71 L83.81 32.41 L83.57 32.68 L83.14 32.85 L82.93 32.35 L82.57 32.79 L82.18 32.60 L81.66 32.87 L81.57 33.26 L81.30 33.32 L81.22 33.81 L80.68 34.22 L79.75 34.35 L79.52 34.22 L78.93 34.38 L78.72 34.22 L78.36 34.61 L77.78 34.69 L77.43 34.59 L77.20 34.88 L76.75 34.66 L76.33 34.87 L76.08 35.21 L75.74 35.36 L75.50 35.17 L75.07 35.22 L74.82 35.01 L73.89 35.35 L73.50 35.61 L73.03 36.10 L72.62 36.17 L72.13 36.70 L71.52 36.97 L70.90 37.38 L70.48 37.41 L70.09 37.66 L69.82 38.15 L69.04 38.40 L68.41 38.90 L68.40 39.11 L68.04 39.37 L67.50 39.31 L67.26 39.60 L66.32 40.15 L66.49 40.66 L66.47 41.08 L66.26 41.34 L66.04 41.97 L65.80 42.39 L65.86 43.01 L65.68 43.51 L65.79 43.83 L65.06 44.88 L64.36 45.42 L64.11 46.04 L64.10 46.44 L63.84 46.58 L63.63 47.41 L64.33 48.87 L64.66 49.77 L64.38 50.27 L64.01 50.69 L63.05 50.90 L62.58 51.23 L61.63 51.49 L61.33 51.83 L61.02 51.91 L60.22 52.72 L59.85 53.47 L59.84 54.39 L59.57 54.77 L60.18 55.63 L60.34 56.17 L60.13 56.49 L59.42 56.46 L59.10 56.84 L58.64 56.64 L58.52 56.88 L58.74 57.50 L58.50 57.93 L58.20 57.94 Z" fill="rgba(201,169,97,0.05)" stroke="#C9A961" stroke-width="0.25" />
<path d="M84.83 100.43 L84.27 100.19 L83.64 100.13 L83.36 99.76 L82.82 99.65 L82.09 99.80 L81.46 99.49 L80.88 99.82 L80.49 100.25 L80.00 101.00 L79.40 100.74 L79.06 99.69 L79.02 98.86 L78.53 98.78 L78.07 98.54 L77.67 98.11 L77.23 98.19 L76.96 97.67 L76.21 96.80 L75.85 96.73 L75.15 97.02 L74.77 97.45 L74.30 97.07 L73.77 96.96 L73.05 96.61 L73.22 96.39 L73.03 95.84 L72.66 95.42 L72.37 95.32 L72.44 94.78 L73.07 94.47 L73.09 93.88 L72.64 93.47 L72.11 93.26 L72.25 92.55 L72.19 92.12 L71.61 91.92 L70.90 91.88 L70.97 91.52 L70.79 91.30 L70.39 91.24 L70.32 90.66 L70.43 90.39 L70.00 90.17 L70.15 89.86 L69.72 89.29 L70.56 88.44 L70.73 87.22 L71.06 86.86 L71.12 86.56 L71.43 85.93 L71.41 85.51 L71.99 84.77 L71.52 84.46 L71.54 84.04 L71.93 83.89 L72.51 84.05 L72.77 83.89 L74.11 83.97 L74.97 83.94 L76.36 83.61 L77.65 83.60 L78.28 82.82 L78.40 82.35 L78.66 82.17 L78.60 81.63 L78.85 80.81 L79.36 80.24 L80.12 80.05 L80.54 79.32 L80.55 79.01 L80.87 78.91 L81.20 78.59 L81.65 78.38 L82.49 77.65 L82.47 77.47 L82.89 77.06 L82.72 76.72 L82.76 76.25 L83.16 75.83 L83.16 83.97 L83.80 83.47 L84.34 83.93 L84.57 84.25 L85.43 84.49 L85.90 84.34 L86.23 84.37 L86.66 84.19 L87.01 83.89 L87.50 83.80 L88.05 83.43 L88.45 83.37 L89.28 83.44 L89.64 83.70 L90.42 83.64 L90.70 83.53 L90.95 83.72 L93.43 87.72 L94.35 89.08 L95.35 90.85 L97.68 95.23 L97.40 95.86 L97.10 96.06 L97.20 96.45 L97.03 96.92 L96.34 97.58 L96.33 97.93 L96.07 98.13 L96.07 99.02 L90.32 101.55 L84.72 99.85 L84.83 100.43 Z" fill="rgba(201,169,97,0.05)" stroke="#C9A961" stroke-width="0.25" />
<path d="M79.27 135.20 L78.78 134.80 L77.54 134.15 L77.77 133.81 L77.65 133.45 L77.54 132.60 L77.38 131.95 L76.67 131.17 L77.03 130.92 L78.06 129.73 L77.79 129.19 L77.45 129.19 L77.04 128.02 L77.01 127.56 L77.15 127.08 L77.56 126.92 L77.87 127.17 L78.16 126.97 L78.23 126.14 L78.49 125.65 L78.48 125.02 L79.27 125.08 L79.72 124.96 L80.36 125.24 L80.65 124.98 L80.48 124.61 L80.40 123.85 L80.62 123.83 L81.38 123.33 L81.23 122.23 L81.36 121.94 L81.69 121.92 L81.63 121.36 L82.02 121.64 L82.48 121.76 L82.94 121.44 L83.56 121.43 L83.81 121.72 L84.67 122.09 L84.73 122.64 L85.05 123.08 L85.20 123.94 L84.88 124.41 L85.24 124.61 L85.48 125.11 L86.02 125.32 L86.41 125.73 L86.46 126.10 L87.06 126.44 L87.36 126.23 L87.70 126.45 L87.74 127.00 L87.33 127.25 L87.03 127.62 L87.01 128.21 L86.62 128.57 L85.88 128.67 L85.79 128.29 L86.19 127.59 L85.43 127.32 L84.44 127.84 L84.27 128.62 L84.38 129.64 L84.07 129.71 L83.80 130.29 L83.19 130.64 L82.64 130.72 L82.41 131.08 L82.14 131.89 L82.26 132.04 L81.19 133.20 L80.95 134.19 L80.35 134.13 L79.54 134.70 L79.27 135.20 Z" fill="rgba(201,169,97,0.05)" stroke="#C9A961" stroke-width="0.25" />
<path d="M41.20 83.39 L41.48 84.42 L41.32 85.09 L40.98 84.96 L40.91 84.65 L40.32 84.53 L39.62 84.64 L39.33 84.24 L38.97 84.05 L39.08 83.71 L38.96 82.97 L38.57 82.35 L38.38 81.62 L38.41 81.31 L38.06 80.91 L37.89 80.10 L38.10 79.78 L38.47 79.57 L39.63 79.30 L39.76 78.99 L40.78 78.61 L40.97 79.50 L41.25 79.24 L41.61 79.27 L42.30 79.68 L42.68 79.71 L42.84 79.95 L43.44 80.05 L43.82 79.51 L43.82 79.13 L44.33 78.72 L44.45 78.39 L44.85 78.35 L45.46 78.01 L45.46 77.45 L45.67 76.81 L46.16 76.63 L46.30 76.10 L46.61 76.33 L47.15 76.26 L47.74 75.81 L47.93 75.48 L48.54 75.48 L48.63 75.33 L48.43 74.83 L48.89 74.85 L49.48 75.25 L49.87 75.30 L50.23 75.10 L50.67 75.24 L51.09 74.66 L51.43 74.48 L51.79 74.56 L52.12 74.43 L52.10 74.10 L52.63 73.25 L52.52 72.88 L52.69 72.47 L53.06 72.16 L53.75 72.67 L53.81 73.23 L54.40 73.40 L54.48 74.22 L54.76 74.80 L54.74 75.48 L55.01 75.72 L54.94 76.38 L55.11 76.98 L55.36 77.30 L55.65 77.28 L55.83 77.68 L56.36 77.84 L56.42 78.55 L56.03 79.26 L56.19 79.85 L56.46 79.85 L56.73 80.24 L57.10 81.00 L56.86 81.25 L56.38 81.23 L56.00 81.52 L55.73 81.91 L55.31 82.15 L55.22 82.55 L54.49 82.74 L54.30 83.07 L53.83 83.31 L53.53 83.25 L53.27 82.97 L52.83 82.90 L52.45 82.65 L52.21 82.70 L51.92 82.32 L51.46 82.23 L50.99 81.96 L50.82 82.06 L50.55 81.54 L50.12 81.46 L49.78 81.94 L49.26 81.83 L48.86 82.22 L48.73 82.65 L48.32 82.94 L47.66 82.88 L47.22 83.22 L47.11 82.84 L47.27 82.36 L47.04 82.14 L46.42 82.07 L46.30 82.55 L45.53 82.72 L45.25 82.53 L44.85 82.65 L44.46 83.11 L44.31 82.97 L43.84 83.09 L43.32 82.62 L42.93 83.06 L42.59 83.26 L42.35 83.68 L41.85 83.67 L41.71 83.36 L41.61 83.33 L41.42 83.40 L41.34 83.36 L41.20 83.39 Z" fill="rgba(201,169,97,0.05)" stroke="#C9A961" stroke-width="0.25" />
<path d="M19.48 38.64 L19.22 38.91 L18.86 39.73 L18.24 40.33 L18.46 40.65 L18.38 41.07 L18.61 41.28 L18.83 42.34 L19.02 42.80 L18.09 42.94 L18.26 43.46 L18.07 44.53 L18.15 44.84 L18.57 45.61 L17.94 46.19 L17.34 45.78 L16.59 45.96 L16.40 45.57 L16.36 45.13 L15.98 45.26 L15.58 45.19 L15.73 44.46 L15.21 43.76 L14.87 43.75 L14.64 43.13 L14.71 42.90 L14.35 42.59 L14.03 42.77 L13.86 43.28 L13.67 44.55 L12.66 45.58 L12.16 45.61 L11.21 46.02 L10.85 46.47 L8.99 49.21 L7.72 48.58 L6.87 47.84 L5.55 47.03 L5.12 46.27 L5.12 45.58 L5.50 45.20 L5.72 44.80 L6.06 45.14 L6.65 45.25 L7.03 44.98 L7.25 44.53 L7.32 43.68 L6.98 42.74 L6.53 42.08 L5.83 41.39 L5.42 41.27 L5.20 40.88 L4.78 40.50 L5.24 39.43 L5.55 39.52 L5.78 39.20 L5.58 38.66 L4.92 37.82 L3.79 36.51 L3.93 36.36 L4.13 35.34 L3.98 35.02 L4.25 34.65 L4.38 34.06 L4.29 33.73 L4.47 33.28 L4.98 32.97 L5.48 32.36 L5.92 32.05 L6.44 32.35 L6.56 32.70 L7.09 32.84 L7.68 32.71 L8.44 32.80 L9.02 33.13 L9.48 32.70 L9.75 32.20 L10.02 32.02 L10.30 32.33 L10.42 32.86 L10.88 32.88 L11.20 33.07 L10.91 33.51 L10.47 33.92 L10.27 34.29 L10.38 34.82 L10.75 35.04 L11.48 34.66 L12.19 33.99 L12.31 33.67 L12.86 33.58 L13.69 34.25 L14.22 34.29 L14.59 34.49 L14.82 34.90 L15.16 35.09 L15.79 34.93 L16.18 34.65 L16.39 34.69 L16.87 35.25 L17.35 35.31 L17.49 35.69 L17.42 36.09 L18.13 37.64 L18.66 38.05 L19.09 38.67 L19.48 38.64 Z" fill="rgba(201,169,97,0.05)" stroke="#C9A961" stroke-width="0.25" />
<path d="M95.72 124.55 L95.72 123.27 L96.49 123.92 L96.49 124.13 L95.72 124.55 Z M90.37 131.19 L89.98 131.09 L89.70 131.24 L89.28 130.80 L88.81 130.86 L87.41 129.99 L87.36 129.45 L86.97 129.07 L86.62 128.57 L87.01 128.21 L87.03 127.62 L87.33 127.25 L87.74 127.00 L87.70 126.45 L87.36 126.23 L87.06 126.44 L86.46 126.10 L86.41 125.73 L86.02 125.32 L85.48 125.11 L85.24 124.61 L84.88 124.41 L85.20 123.94 L85.05 123.08 L84.73 122.64 L84.67 122.09 L83.81 121.72 L83.56 121.43 L82.94 121.44 L82.48 121.76 L82.02 121.64 L81.63 121.36 L81.46 120.94 L80.77 119.90 L81.04 119.36 L80.91 118.84 L80.24 118.24 L80.19 117.68 L80.35 117.42 L80.01 117.05 L80.21 116.59 L80.65 116.18 L80.41 115.88 L80.58 115.63 L80.48 115.33 L80.27 113.80 L80.41 113.60 L80.35 112.72 L80.48 112.24 L80.20 112.05 L79.91 112.16 L79.46 111.50 L80.29 110.79 L80.33 110.29 L80.58 109.84 L80.41 109.55 L80.58 109.21 L80.95 108.96 L81.19 108.53 L81.05 108.22 L81.29 107.77 L81.72 107.43 L81.81 107.04 L81.33 106.69 L81.54 106.03 L81.55 105.44 L82.02 105.10 L82.37 105.21 L82.53 105.02 L82.27 104.54 L82.41 103.96 L82.87 103.91 L83.14 103.56 L83.70 103.30 L83.75 102.93 L84.36 102.35 L84.43 101.94 L84.75 101.78 L84.80 101.35 L84.59 100.93 L84.83 100.43 L84.72 99.85 L90.32 101.55 L96.07 99.02 L96.20 99.44 L96.05 99.85 L96.26 100.83 L95.73 102.64 L95.17 103.87 L94.66 103.92 L94.63 104.16 L95.29 104.68 L95.26 104.87 L95.73 105.10 L95.48 105.59 L95.25 105.70 L95.28 106.33 L95.58 106.69 L95.89 106.81 L96.18 107.72 L96.39 108.14 L95.40 108.15 L95.00 108.86 L95.22 109.31 L94.89 109.70 L94.49 109.89 L94.08 110.35 L94.01 110.85 L93.49 110.86 L93.42 111.43 L93.21 111.63 L93.45 112.06 L92.89 112.24 L92.50 112.52 L92.57 113.13 L92.44 113.63 L92.90 114.38 L93.00 114.72 L93.37 114.91 L94.14 115.76 L93.52 116.39 L93.28 116.79 L93.24 117.53 L92.97 117.29 L92.66 118.05 L91.89 117.63 L91.59 117.22 L90.90 116.67 L90.70 116.78 L90.36 116.41 L90.34 116.13 L89.94 115.76 L89.72 115.80 L89.39 116.33 L89.07 116.17 L88.49 116.22 L88.43 116.68 L88.13 116.99 L88.29 117.42 L88.74 118.19 L89.41 118.95 L89.56 119.48 L89.24 119.45 L88.85 119.15 L88.86 118.82 L88.50 118.46 L87.98 119.26 L87.58 119.20 L87.46 119.44 L87.53 119.92 L87.98 120.40 L88.58 120.69 L89.03 119.91 L89.43 120.25 L89.42 120.73 L89.83 120.89 L90.14 121.19 L90.95 121.21 L91.77 121.47 L91.98 121.87 L91.39 122.64 L91.45 123.08 L91.96 122.86 L92.46 123.40 L93.33 123.55 L94.04 123.42 L94.71 123.00 L95.29 123.45 L94.74 123.64 L94.95 124.01 L94.95 124.55 L94.49 124.99 L94.49 125.25 L94.84 125.72 L94.88 126.07 L95.15 126.45 L94.78 126.69 L93.86 126.98 L93.49 127.80 L92.86 128.40 L92.57 128.93 L92.19 129.21 L92.35 129.58 L91.79 129.76 L91.33 130.13 L90.99 130.22 L90.37 131.19 Z M88.54 115.56 L88.21 115.16 L88.03 115.30 L87.56 115.16 L87.38 114.84 L86.85 115.27 L87.26 115.46 L88.07 115.66 L88.54 115.56 Z" fill="rgba(201,169,97,0.05)" stroke="#C9A961" stroke-width="0.25" />
<path d="M43.37 63.85 L42.62 63.96 L42.30 64.94 L42.40 66.37 L42.03 67.12 L41.56 67.41 L41.29 66.35 L41.20 65.77 L40.86 65.37 L40.79 64.66 L40.18 64.76 L39.97 65.11 L39.81 65.71 L39.24 65.26 L38.64 65.28 L38.10 65.43 L37.10 65.31 L36.99 65.54 L36.48 65.72 L35.49 65.59 L35.18 65.32 L35.20 65.06 L34.86 64.74 L35.22 64.48 L36.03 64.41 L36.49 63.88 L36.59 63.56 L36.41 63.08 L36.54 62.72 L35.95 62.27 L35.71 61.83 L34.98 61.62 L34.74 61.67 L34.09 61.53 L33.69 61.89 L33.00 61.85 L32.84 61.37 L33.06 60.75 L32.84 60.70 L32.57 60.03 L32.30 59.96 L31.95 59.61 L32.27 59.18 L31.88 58.30 L31.95 57.72 L31.33 57.19 L31.15 56.61 L31.20 56.33 L31.06 55.73 L31.37 55.57 L31.09 55.04 L30.57 54.73 L30.23 53.66 L30.50 53.12 L30.21 52.48 L30.32 52.06 L30.33 51.41 L30.72 51.51 L31.32 51.01 L31.82 51.50 L33.03 51.65 L32.62 50.96 L32.94 50.94 L33.37 50.34 L33.44 49.93 L33.83 49.47 L33.73 48.90 L33.93 48.87 L34.21 49.28 L34.58 49.28 L34.87 48.68 L34.37 48.15 L34.20 47.52 L33.77 47.48 L33.29 47.27 L32.93 46.71 L32.64 46.87 L32.31 46.42 L31.90 46.89 L31.46 46.48 L30.90 46.27 L31.03 45.93 L30.83 45.36 L30.20 45.06 L30.12 44.05 L30.40 43.45 L30.18 42.95 L30.16 42.19 L30.35 41.96 L30.70 41.99 L30.89 41.98 L31.55 42.37 L31.72 42.10 L32.02 42.41 L32.43 43.29 L32.83 43.33 L33.11 43.18 L33.35 43.44 L34.14 43.37 L35.55 43.97 L35.89 43.91 L36.14 44.21 L36.68 44.52 L37.07 44.50 L37.20 45.38 L37.73 46.07 L37.72 46.44 L38.52 46.43 L39.20 46.58 L40.21 46.04 L40.50 46.22 L40.91 47.06 L41.24 47.20 L41.61 47.66 L42.32 47.74 L43.03 47.16 L43.52 47.13 L43.78 47.44 L44.49 47.46 L44.63 47.17 L45.37 47.45 L45.63 47.13 L46.01 47.03 L46.12 46.59 L46.44 46.44 L46.72 47.13 L46.78 47.65 L47.06 47.94 L47.04 48.42 L46.60 49.02 L46.90 50.11 L46.97 51.22 L46.96 52.17 L46.88 52.31 L45.98 52.74 L45.72 52.62 L45.50 52.94 L44.98 52.83 L44.42 52.40 L43.53 52.33 L42.88 52.50 L43.18 53.12 L42.88 53.51 L43.18 53.90 L43.18 54.51 L42.82 55.14 L42.20 55.46 L42.03 55.93 L41.68 56.25 L41.81 56.43 L41.67 56.96 L42.03 57.64 L42.59 58.13 L42.51 59.35 L42.94 59.87 L43.51 61.14 L44.30 60.84 L44.53 61.24 L44.41 61.88 L43.88 61.97 L43.64 62.18 L43.70 62.83 L43.90 63.34 L43.75 63.77 L43.37 63.85 Z" fill="rgba(201,169,97,0.05)" stroke="#C9A961" stroke-width="0.25" />
<path d="M90.37 131.19 L90.86 131.23 L91.66 131.83 L91.65 132.81 L90.19 133.98 L89.22 133.88 L89.03 134.18 L89.19 134.75 L89.22 135.50 L89.58 136.12 L89.55 136.43 L89.09 137.40 L88.79 137.78 L88.00 138.51 L87.33 138.56 L86.60 138.93 L85.58 138.85 L84.92 139.17 L84.14 138.59 L82.68 137.75 L81.69 136.84 L81.20 136.65 L81.07 136.26 L80.22 135.61 L79.58 135.54 L79.27 135.20 L79.54 134.70 L80.35 134.13 L80.95 134.19 L81.19 133.20 L82.26 132.04 L82.14 131.89 L82.41 131.08 L82.64 130.72 L83.19 130.64 L83.80 130.29 L84.07 129.71 L84.38 129.64 L84.27 128.62 L84.44 127.84 L85.43 127.32 L86.19 127.59 L85.79 128.29 L85.88 128.67 L86.62 128.57 L86.97 129.07 L87.36 129.45 L87.41 129.99 L88.81 130.86 L89.28 130.80 L89.70 131.24 L89.98 131.09 L90.37 131.19 Z" fill="rgba(201,169,97,0.05)" stroke="#C9A961" stroke-width="0.25" />
<path d="M10.02 32.02 L9.75 32.20 L9.48 32.70 L9.02 33.13 L8.44 32.80 L7.68 32.71 L7.09 32.84 L6.56 32.70 L6.44 32.35 L5.92 32.05 L6.32 31.29 L6.55 31.06 L7.46 30.46 L7.75 29.59 L8.05 29.28 L9.31 28.66 L9.60 28.31 L9.89 27.70 L10.42 27.56 L10.81 27.58 L11.47 26.95 L12.00 27.22 L11.86 27.47 L12.10 27.90 L12.23 28.37 L12.29 29.43 L12.44 29.91 L12.46 30.41 L12.59 30.74 L11.85 31.06 L11.42 31.52 L10.95 31.27 L10.45 31.31 L10.02 32.02 Z" fill="rgba(201,169,97,0.05)" stroke="#C9A961" stroke-width="0.25" />
<path d="M83.16 75.83 L82.76 76.25 L82.72 76.72 L82.89 77.06 L82.47 77.47 L82.49 77.65 L81.65 78.38 L81.20 78.59 L80.87 78.91 L80.55 79.01 L80.54 79.32 L80.12 80.05 L79.36 80.24 L78.85 80.81 L78.60 81.63 L78.66 82.17 L78.40 82.35 L78.28 82.82 L77.65 83.60 L76.36 83.61 L74.97 83.94 L74.11 83.97 L72.77 83.89 L72.51 84.05 L71.93 83.89 L71.54 84.04 L71.52 84.46 L71.99 84.77 L71.41 85.51 L71.43 85.93 L71.12 86.56 L70.61 86.27 L70.09 86.46 L69.34 86.88 L68.93 87.23 L68.38 87.18 L67.66 86.83 L67.43 86.57 L67.01 86.85 L66.25 86.65 L65.84 86.45 L65.94 86.08 L65.72 85.95 L65.56 85.46 L65.29 85.95 L64.47 86.17 L63.98 86.14 L63.58 86.31 L63.03 86.30 L62.38 86.85 L61.90 86.36 L62.08 86.24 L62.15 85.65 L61.91 84.46 L61.47 84.32 L61.25 83.65 L61.34 82.92 L60.96 82.81 L60.33 82.26 L59.88 81.98 L59.45 82.46 L59.39 83.37 L59.16 83.63 L59.07 84.25 L59.11 85.06 L58.24 84.87 L58.24 84.49 L58.04 83.91 L57.40 83.87 L56.59 84.11 L56.18 84.10 L55.31 84.39 L54.78 84.00 L54.37 83.94 L54.31 83.59 L53.83 83.31 L54.30 83.07 L54.49 82.74 L55.22 82.55 L55.31 82.15 L55.73 81.91 L56.00 81.52 L56.38 81.23 L56.86 81.25 L57.10 81.00 L56.73 80.24 L56.46 79.85 L56.19 79.85 L56.03 79.26 L56.42 78.55 L56.36 77.84 L55.83 77.68 L55.65 77.28 L55.36 77.30 L55.11 76.98 L54.94 76.38 L55.01 75.72 L54.74 75.48 L54.76 74.80 L54.48 74.22 L54.40 73.40 L53.81 73.23 L53.75 72.67 L53.06 72.16 L53.08 71.91 L53.71 71.22 L53.34 70.14 L53.33 69.83 L53.06 69.65 L53.25 69.31 L53.31 68.33 L53.57 67.59 L54.14 67.26 L54.19 67.06 L54.03 65.82 L53.50 65.56 L52.17 66.18 L51.81 66.40 L51.78 67.12 L51.11 67.88 L51.16 68.42 L50.83 68.58 L50.33 68.23 L49.97 68.36 L49.61 68.74 L49.55 69.24 L49.33 69.55 L48.91 69.75 L49.11 70.14 L49.12 70.67 L48.73 70.98 L48.58 71.27 L48.23 71.18 L47.32 71.17 L47.01 71.78 L46.50 71.95 L45.70 71.92 L45.25 70.99 L44.79 70.36 L44.70 69.86 L44.18 69.11 L44.19 68.72 L43.88 68.04 L43.84 67.30 L43.66 66.81 L44.06 66.40 L44.50 66.33 L44.90 65.55 L44.90 65.14 L45.36 65.09 L45.43 64.73 L45.87 64.51 L46.23 64.53 L46.62 64.94 L47.41 64.71 L47.45 64.39 L46.94 64.05 L46.95 63.61 L47.18 63.33 L47.48 62.69 L47.88 62.48 L48.54 62.38 L48.86 62.60 L49.08 62.39 L49.31 61.56 L49.62 61.27 L50.42 61.06 L50.80 61.20 L51.44 62.04 L52.37 61.70 L52.69 61.29 L53.43 60.98 L53.86 60.05 L54.26 59.76 L53.95 59.55 L53.75 59.17 L53.85 58.94 L53.31 58.15 L53.32 57.68 L53.51 57.19 L53.79 57.00 L54.11 56.13 L54.36 55.92 L54.65 56.17 L55.74 56.56 L56.16 56.51 L56.74 56.62 L57.05 56.90 L57.78 57.29 L57.83 57.57 L58.20 57.94 L58.90 58.45 L58.82 58.72 L59.28 58.96 L59.54 59.29 L60.20 59.50 L60.48 59.93 L60.46 60.37 L59.80 60.76 L60.25 61.15 L60.53 61.53 L60.74 61.48 L61.15 62.39 L61.07 62.68 L61.32 63.28 L61.59 63.49 L61.46 64.04 L62.72 64.98 L63.03 65.01 L62.94 65.96 L63.12 66.02 L63.63 66.62 L64.25 66.68 L64.64 67.33 L64.66 67.59 L65.21 68.31 L65.48 68.32 L65.87 69.16 L65.93 69.64 L65.76 70.02 L65.01 70.65 L64.33 71.62 L64.09 71.67 L64.00 72.03 L67.58 72.04 L68.96 72.57 L69.88 72.53 L70.81 73.02 L70.76 73.47 L71.07 73.88 L70.98 74.29 L71.30 74.79 L71.77 74.93 L71.69 75.19 L71.78 75.75 L71.61 75.93 L71.56 76.45 L77.52 76.46 L77.76 76.21 L78.10 76.40 L78.88 76.01 L79.13 75.49 L79.92 75.07 L80.31 75.09 L80.49 74.66 L80.86 74.51 L81.28 73.94 L81.79 73.77 L82.16 73.22 L82.84 72.81 L83.54 72.18 L83.90 72.65 L83.71 72.96 L83.32 73.06 L83.28 73.51 L83.63 73.98 L83.80 74.40 L83.73 74.70 L83.17 74.99 L83.16 75.83 Z" fill="rgba(201,169,97,0.05)" stroke="#C9A961" stroke-width="0.25" />
<circle cx="10.3" cy="28.1" r="1.2" fill="#6FA8C9" stroke="#0E1014" stroke-width="0.25" />
<circle cx="8.9" cy="40.4" r="1.2" fill="#6FA8C9" stroke="#0E1014" stroke-width="0.25" />
<circle cx="14.8" cy="52.2" r="1.2" fill="#6FA8C9" stroke="#0E1014" stroke-width="0.25" />
<circle cx="20.8" cy="62.3" r="1.2" fill="#6FA8C9" stroke="#0E1014" stroke-width="0.25" />
<circle cx="24.6" cy="55.1" r="1.2" fill="#C9A961" stroke="#0E1014" stroke-width="0.25" />
<circle cx="29.4" cy="48.1" r="1.2" fill="#C9A961" stroke="#0E1014" stroke-width="0.25" />
<circle cx="63.6" cy="29.5" r="1.2" fill="#7FB069" stroke="#0E1014" stroke-width="0.25" />
<circle cx="36.1" cy="46.7" r="1.2" fill="#7FB069" stroke="#0E1014" stroke-width="0.25" />
<circle cx="54.0" cy="64.3" r="1.2" fill="#7FB069" stroke="#0E1014" stroke-width="0.25" />
<circle cx="31.9" cy="72.9" r="1.2" fill="#C9A961" stroke="#0E1014" stroke-width="0.25" />
<circle cx="41.5" cy="75.9" r="1.2" fill="#C9A961" stroke="#0E1014" stroke-width="0.25" />
<circle cx="41.4" cy="81.6" r="1.2" fill="#C9A961" stroke="#0E1014" stroke-width="0.25" />
<circle cx="49.2" cy="92.0" r="1.2" fill="#C9A961" stroke="#0E1014" stroke-width="0.25" />
<circle cx="35.5" cy="91.8" r="1.2" fill="#6FA8C9" stroke="#0E1014" stroke-width="0.25" />
<circle cx="34.4" cy="91.9" r="1.2" fill="#6FA8C9" stroke="#0E1014" stroke-width="0.25" />
<circle cx="50.9" cy="97.4" r="1.2" fill="#C9A961" stroke="#0E1014" stroke-width="0.25" />
<circle cx="45.3" cy="107.0" r="1.2" fill="#6FA8C9" stroke="#0E1014" stroke-width="0.25" />
<circle cx="56.4" cy="100.2" r="1.2" fill="#C9A961" stroke="#0E1014" stroke-width="0.25" />
<circle cx="66.4" cy="103.8" r="1.2" fill="#C9A961" stroke="#0E1014" stroke-width="0.25" />
<circle cx="73.1" cy="103.0" r="1.2" fill="#C9A961" stroke="#0E1014" stroke-width="0.25" />
<circle cx="93.7" cy="95.9" r="1.2" fill="#7FB069" stroke="#0E1014" stroke-width="0.25" />
<circle cx="87.5" cy="120.3" r="1.2" fill="#C9A961" stroke="#0E1014" stroke-width="0.25" />
<circle cx="76.3" cy="124.6" r="1.2" fill="#C9A961" stroke="#0E1014" stroke-width="0.25" />
<circle cx="80.8" cy="130.5" r="1.2" fill="#C9A961" stroke="#0E1014" stroke-width="0.25" />
<circle cx="85.8" cy="136.6" r="1.2" fill="#6FA8C9" stroke="#0E1014" stroke-width="0.25" />
</svg>